<svg width="33" height="33" viewBox="0 0 33 33" fill="none" xmlns="http://www.w3.org/2000/svg">
<path d="M27.72 9.40509C23.76 3.30009 15.675 1.48509 9.405 5.28009C3.3 9.07509 1.32 17.3251 5.28 23.4301L5.61 23.9251L4.29 28.8751L9.24 27.5551L9.735 27.8851C11.88 29.0401 14.19 29.7001 16.5 29.7001C18.975 29.7001 21.45 29.0401 23.595 27.7201C29.7 23.7601 31.515 15.6751 27.72 9.40509ZM24.255 22.1101C23.595 23.1001 22.77 23.7601 21.615 23.9251C20.955 23.9251 20.13 24.2551 16.83 22.9351C14.025 21.6151 11.715 19.4701 10.065 16.9951C9.075 15.8401 8.58 14.3551 8.415 12.8701C8.415 11.5501 8.91 10.3951 9.735 9.57009C10.065 9.24009 10.395 9.07509 10.725 9.07509H11.55C11.88 9.07509 12.21 9.07509 12.375 9.73509C12.705 10.5601 13.53 12.5401 13.53 12.7051C13.695 12.8701 13.695 13.2001 13.53 13.3651C13.695 13.6951 13.53 14.0251 13.365 14.1901C13.2 14.3551 13.035 14.6851 12.87 14.8501C12.54 15.0151 12.375 15.3451 12.54 15.6751C13.2 16.6651 14.025 17.6551 14.85 18.4801C15.84 19.3051 16.83 19.9651 17.985 20.4601C18.315 20.6251 18.645 20.6251 18.81 20.2951C18.975 19.9651 19.8 19.1401 20.13 18.8101C20.46 18.4801 20.625 18.4801 20.955 18.6451L23.595 19.9651C23.925 20.1301 24.255 20.2951 24.42 20.4601C24.585 20.9551 24.585 21.6151 24.255 22.1101Z" fill="#131313"/>
</svg>
